<?xml version="1.0" encoding="UTF-8"?>
<svg id="Layer_2" data-name="Layer 2" xmlns="http://www.w3.org/2000/svg" viewBox="0 0 204.09 188.79">
  <defs>
    <style>
      .cls-1 {
        letter-spacing: 0em;
      }

      .cls-1, .cls-2, .cls-3, .cls-4, .cls-5, .cls-6, .cls-7 {
        font-size: 12px;
      }

      .cls-2 {
        letter-spacing: 0em;
      }

      .cls-3 {
        letter-spacing: -.03em;
      }

      .cls-8 {
        letter-spacing: 0em;
      }

      .cls-9, .cls-4 {
        fill: #231f20;
        font-family: MyriadPro-Regular, 'Myriad Pro';
      }

      .cls-10, .cls-11 {
        font-size: 8px;
      }

      .cls-12 {
        letter-spacing: 0em;
      }

      .cls-13 {
        fill: #fff;
      }

      .cls-13, .cls-14 {
        stroke: #231f20;
        stroke-miterlimit: 10;
      }

      .cls-14 {
        fill: none;
      }

      .cls-15 {
        letter-spacing: -.05em;
      }

      .cls-11 {
        letter-spacing: 0em;
      }

      .cls-16 {
        letter-spacing: -.07em;
      }

      .cls-6, .cls-17 {
        letter-spacing: -.01em;
      }

      .cls-18 {
        letter-spacing: 0em;
      }

      .cls-7 {
        letter-spacing: 0em;
      }
    </style>
  </defs>
  <g id="Layer_1-2" data-name="Layer 1">
    <rect class="cls-13" x=".5" y="60.05" width="102.42" height="128.24"/>
    <rect class="cls-13" x="117.8" y="60.05" width="85.79" height="128.24"/>
    <line class="cls-14" x1=".76" y1="85.89" x2="102.52" y2="84.37"/>
    <line class="cls-14" x1=".63" y1="110.99" x2="102.39" y2="109.47"/>
    <line class="cls-14" x1=".5" y1="136.09" x2="102.25" y2="134.57"/>
    <text class="cls-4" transform="translate(32.51 52.3)"><tspan class="cls-15" x="0" y="0">T</tspan><tspan class="cls-18" x="5.42" y="0">r</tspan><tspan class="cls-12" x="9.29" y="0">aining</tspan></text>
    <text class="cls-4" transform="translate(138.38 52.3)"><tspan class="cls-16" x="0" y="0">T</tspan><tspan class="cls-8" x="5.11" y="0">esting</tspan></text>
    <text class="cls-9" transform="translate(64.51 16.88)"><tspan class="cls-5" x="0" y="0">A, </tspan><tspan class="cls-6" x="12.37" y="0">B</tspan><tspan class="cls-5" x="18.72" y="0">, C, </tspan><tspan class="cls-3" x="35.73" y="0">D</tspan><tspan class="cls-5" x="43.32" y="0">, </tspan><tspan class="cls-2" x="48.35" y="0">E</tspan><tspan class="cls-5" x="54.2" y="0">, ... n</tspan><tspan class="cls-11" x="75.89" y="0">ab</tspan></text>
    <rect class="cls-14" x=".5" y=".5" width="203.09" height="26.85"/>
    <text class="cls-4" transform="translate(51.89 77.04)"><tspan x="0" y="0">A</tspan></text>
    <text class="cls-4" transform="translate(46.13 100.25)"><tspan x="0" y="0">A, B</tspan></text>
    <text class="cls-4" transform="translate(40.21 128.59)"><tspan x="0" y="0">A, </tspan><tspan class="cls-17" x="12.37" y="0">B</tspan><tspan x="18.72" y="0">, C</tspan></text>
    <text class="cls-4" transform="translate(33.7 153.82)"><tspan x="0" y="0">A, </tspan><tspan class="cls-17" x="12.37" y="0">B</tspan><tspan x="18.72" y="0">, C, D</tspan></text>
    <text class="cls-9" transform="translate(148.5 124.17)"><tspan class="cls-7" x="0" y="0">E</tspan><tspan class="cls-1" x="5.86" y="0">, ...n</tspan><tspan class="cls-10" x="25" y="0">b</tspan></text>
    <line class="cls-14" x1=".83" y1="161.19" x2="102.59" y2="159.67"/>
    <text class="cls-9" transform="translate(48.04 175.27)"><tspan class="cls-5" x="0" y="0">... n</tspan><tspan class="cls-10" x="16.66" y="0">a</tspan></text>
  </g>
</svg>